PathFileType	4	(X/Y/Z)	OpenSim_Sub09_EMGStiffKnee_Accel.trc
DataRate	CameraRate	NumFrames	NumMarkers	Units	OrigDataRate	OrigDataStartFrame	OrigNumFrames
100	100	24	8	m	100	949	7584
Frame#	Time	torso_imu_offset_imu	pelvis_imu_offset_imu	tibia_r_imu_offset_imu	femur_r_imu_offset_imu	tibia_l_imu_offset_imu	femur_l_imu_offset_imu	toes_r_imu_offset_imu	toes_l_imu_offset_imu
				X1	Y1	Z1	X2	Y2	Z2	X3	Y3	Z3	X4	Y4	Z4	X5	Y5	Z5	X6	Y6	Z6	X7	Y7	Z7	X8		Y8	Z8	

949	9.48000000	13.60208299	0.00039782	7.43387589	12.30027145	-1.18709374	4.49876267	4.69365773	7.88879742	-6.41613635	8.02984163	-2.22271390	-2.88064418	11.22590960	-4.72270491	1.85314849	14.41458264	-3.23855912	-1.09496332	19.05887580	-3.78033549	11.39479574	6.18958860	2.28139204	11.95467526
950	9.49000000	13.67185017	-0.17820782	7.07822697	13.29413826	-3.07522780	5.24193332	3.44047925	12.24349183	-9.05665285	4.92931323	-0.27992713	3.17745306	11.53542015	-5.03854451	1.55093147	14.78089276	-4.00330712	-0.46726304	6.72987692	-4.90500620	7.57135674	6.23077995	2.85910316	12.06856395
951	9.50000000	14.12525428	-0.64404190	6.85326103	13.24713987	-3.59483745	5.35486434	1.77094614	11.62007810	-7.35523097	4.68532797	-0.24064089	3.48526551	11.04447324	-3.99799749	1.24270061	14.18371496	-4.88270047	-0.00412836	10.26845904	-2.05821142	9.17669947	8.47097586	3.38294351	11.51944023
952	9.51000000	13.97132758	-1.01727175	6.54638157	12.88850606	-3.79918461	6.08106491	2.95873765	10.70280259	-4.98309367	5.23425478	-0.14919350	1.75181218	9.96091474	-2.31268788	1.26514247	12.93729450	-5.50926349	0.11234984	9.02403439	-2.64046881	7.58543166	13.89190317	2.99218795	11.47879869
953	9.52000000	13.45711694	-1.31954816	6.14657180	13.18495550	-4.23443112	6.81262551	8.17569477	15.48223691	-1.02119227	7.38228625	1.36325714	1.10858113	9.09775710	-1.26673154	1.26501624	11.95751893	-5.80817807	0.11139012	7.50420899	-1.88264970	8.50174465	14.91169316	3.59002192	11.19776401
954	9.53000000	12.89442607	-1.54730326	5.73215083	12.73594907	-4.10647700	6.58197457	13.97985532	19.27850001	0.85871643	9.40588927	2.68816512	-0.20042698	8.66541934	-1.09873256	1.12038193	11.32606795	-5.77120298	-0.12241482	6.95554332	-1.08663157	8.91934912	15.94290369	7.02187229	12.44970550
955	9.54000000	12.32465784	-1.81386484	5.46389457	11.52372223	-2.68161506	6.62287447	15.04261809	18.76094348	-0.88847027	10.37744618	3.22399421	-0.53617407	8.88063028	-1.56957365	0.89797469	10.79891824	-5.21821285	-0.32013153	6.30797057	-2.19507423	8.50157320	14.17317924	4.89301383	11.88473278
956	9.55000000	11.49063217	-2.02652848	5.29919015	10.62465879	-1.24746954	6.76811783	11.37144690	13.95371607	-1.35340028	12.05153005	2.86424535	0.39717959	8.95043010	-2.43260027	0.47676650	10.19683157	-4.09807717	-0.18825551	5.73839492	-2.42864303	8.47198111	11.61271841	3.18319063	10.17681051
957	9.56000000	10.59978382	-2.06534176	4.72550910	9.90481563	-0.38034734	6.35605272	8.44491394	6.85043728	-0.08978189	12.92071766	0.82820300	-0.24158610	8.29980293	-3.81820119	0.95174807	9.82774144	-3.11745541	0.46805455	5.65244794	-2.02923742	8.56108466	8.79613391	5.98568497	7.23895561
958	9.57000000	9.82861765	-2.01476728	4.15021388	9.08352620	0.36738714	5.82143506	8.22664444	0.70410182	-0.84453747	12.44174430	-1.71378220	-0.96221367	7.18946494	-5.54733732	0.86116213	9.50622749	-2.52544027	1.14183013	5.81426227	-2.41103548	8.00683037	7.96244941	5.05489131	6.52786015
959	9.58000000	9.37461479	-2.05959739	3.81504299	8.51310197	0.99235674	5.59025185	9.00227983	-3.03709692	-0.71098368	12.39136267	-2.92391666	-0.37043519	6.01200510	-7.36312977	-0.53372624	8.90954240	-2.01966698	1.31018563	5.40513012	-2.21052987	8.23044783	3.17359713	4.71711076	9.36104069
960	9.59000000	9.06473800	-2.06521153	3.63278632	7.97327976	1.34895429	5.44645518	10.13967660	-4.49162035	-0.99623504	11.79222451	-3.20382717	-0.06182662	4.92559724	-9.85336821	-1.53119729	8.38879884	-1.70014796	1.57212263	5.43316223	-2.17151105	8.28826305	0.52914975	6.87119747	20.39547216
961	9.60000000	8.93977930	-1.99228042	3.55227059	7.38911658	1.52034597	5.19369901	11.81605884	-4.77622733	-0.50241222	10.58902137	-2.85238723	0.31972194	4.65587752	-12.30083691	-1.84916695	8.57719750	-1.31157104	1.81349168	5.19508133	-2.41043807	8.34222861	5.33901672	11.04295404	21.63731911
962	9.61000000	8.94635207	-1.89057927	3.60060788	7.03268815	1.64553396	5.00523091	12.47340754	-3.85402189	-0.27133265	9.68194904	-1.87225671	0.71076707	4.94097337	-12.47670635	-1.59760100	9.37270924	-1.05502015	1.81633732	5.63997697	-2.54462385	7.88822273	-2.88090535	9.18376336	17.81771285
963	9.62000000	8.92449142	-1.70421672	3.69339094	6.93250003	1.59593829	4.86931938	11.71272931	-1.73722164	0.04665102	8.96630301	-0.87915571	0.56489006	4.98898904	-9.85182837	-1.38363897	10.27125059	-1.30344392	1.49463127	5.24003255	-2.15913278	8.21875751	-6.57878253	7.58940146	15.89595354
964	9.63000000	8.89617395	-1.45993958	3.78067044	7.08250413	1.59504288	4.82387977	10.21283529	1.19355388	0.42661107	8.48349165	-0.00488426	0.53568695	4.70883799	-7.01262303	-1.34955195	10.34907982	-2.18368935	0.89008806	5.35046971	-2.11308341	8.19641607	-3.37305360	6.33229196	16.27881222
965	9.64000000	8.74171559	-1.28109865	4.01312261	7.23337743	1.38890968	4.99051324	8.99799048	4.21631026	0.33480464	8.22308682	0.43882979	0.84681626	3.96434373	-4.73281021	-0.38043695	9.32986265	-2.84375077	0.20563522	5.42023831	-2.09285469	8.28373025	-2.98757992	4.64403121	14.92276847
966	9.65000000	8.55426620	-1.17808265	4.06122290	7.43435523	1.07922649	5.13701581	8.39307426	6.96860398	0.30099173	8.04694791	0.74675721	1.02395607	3.51867798	-2.29078842	0.98029634	8.25927769	-2.94597104	-0.02666116	5.45630178	-2.50524263	7.92402962	-2.36715159	3.19978762	13.87964776
967	9.66000000	8.33699525	-1.16649680	4.13467712	7.56223402	0.71847806	5.15462653	8.11639247	8.13007208	0.17387509	7.99534335	0.92213655	0.97141362	4.15856682	0.07869122	1.68486190	7.61674470	-2.67018143	0.14749616	5.57953474	-2.70064877	7.80336307	-1.00057890	2.28388353	13.06859093
968	9.67000000	8.15204696	-1.17001227	4.18628190	7.54117745	0.33978126	5.25235645	8.23122706	7.19625535	-0.22814888	8.16307100	1.18354540	0.88338137	5.58352917	1.44642851	2.20191349	7.21027634	-2.21314292	0.53050264	5.45122198	-2.71143577	7.95635564	-1.10282645	1.65347885	11.69020952
969	9.68000000	7.95970879	-1.20555667	4.12317948	7.44872783	0.05345604	5.26615252	8.60907150	4.58184746	0.34006996	8.51679870	1.27554995	0.77476569	7.38445590	2.05448792	2.61606974	7.08262265	-1.65277077	0.96959628	5.58718902	-2.56555480	7.86075383	-1.37291549	2.04895700	10.71799120
970	9.69000000	7.86029000	-1.23260149	4.08907407	7.32654709	-0.12469356	5.20625284	9.22132765	1.56563562	0.59434145	8.81288255	1.14613522	0.85671317	8.54233241	2.55007243	2.87739050	7.25078470	-1.37007249	1.46329907	5.45492486	-2.41524731	7.93013913	0.89565913	3.20404038	10.98406126
971	9.70000000	7.73109514	-1.19355713	4.09315718	7.11798419	-0.20671747	5.24906911	9.88844467	-1.26008676	0.88584801	8.97109658	0.62193735	1.17480890	8.57607547	2.51719505	2.79830868	7.55371322	-1.29995483	1.69896238	5.55955425	-2.14869141	7.97798395	2.12650171	4.39875401	10.86955936
972	9.71000000	7.75942108	-1.12287633	4.03824764	7.04868016	-0.26490228	5.22970936	10.44254033	-2.96511776	0.79003868	9.10423886	-0.25331173	1.14446701	8.15252494	2.04666087	2.80021625	7.84710241	-1.46096839	1.68162151	5.31184191	-1.75317696	8.31702746	1.17331901	5.41909341	10.61224701
